<?xml version="1.0" encoding="UTF-8"?>
<svg id="_레이어_2" data-name="레이어_2" xmlns="http://www.w3.org/2000/svg" viewBox="0 0 1114.27 731.65">
  <defs>
    <style>
      .cls-1 {
        fill-rule: evenodd;
      }
    </style>
  </defs>
  <g id="_레이어_1-2" data-name="레이어_1">
    <path class="cls-1" d="M335.43,5.76c-105.22,5.94-103.47,13.8-156.78,101.03-16.55,27.09-34.27,53.78-52.5,80.39-5.27-17.64-21.68-30.59-40.96-30.59h-42.45c-23.51,0-42.74,19.23-42.74,42.74s19.23,42.74,42.74,42.74h42.45c.96,0,1.91-.03,2.86-.1-12.31,17.57-24.65,35.19-36.84,52.94-40.07,58.37-35.83,55.19-37.45,124.12-1.49,63.3-1.44,129.17,40.95,169.13v114.49c0,15.95,13.05,28.99,28.99,28.99h96.24c15.95,0,28.99-13.05,28.99-28.99v-61.34c203.12,10.35,493.58,11.22,696.39,0v61.34c0,15.95,13.04,28.99,28.99,28.99h96.24c15.95,0,29-13.05,29-28.99v-114.49c42.39-39.96,42.44-105.83,40.95-169.13-1.62-68.93,2.62-65.75-37.45-124.12-12.19-17.75-24.53-35.37-36.84-52.94.95.07,1.9.1,2.86.1h42.44c23.51,0,42.75-19.23,42.75-42.74s-19.24-42.74-42.75-42.74h-42.44c-19.29,0-35.7,12.95-40.97,30.59-18.23-26.61-35.95-53.3-52.5-80.39-53.31-87.23-51.56-95.05-156.78-101.03-135.53-7.71-307.86-7.66-443.39,0ZM557.13,542.16h-208.91c-46.59,0-59.48-7.9-51.76-54.71,15.44-93.55,39.85-105.23,128-103.67,44.22.78,88.45,1.57,132.68,2.35,44.23-.78,88.45-1.57,132.68-2.35,88.15-1.56,112.56,10.11,128,103.67,7.71,46.81-5.17,54.71-51.76,54.71h-208.92ZM162,213.39c23.19-34.24,44.51-69.4,62.48-106.24,12.96-26.57,20.4-47.02,40.08-56.32,41.21-19.49,543.95-19.49,585.16,0,19.68,9.3,27.12,29.75,40.08,56.32,17.97,36.84,39.29,72,62.48,106.24-251.84-10.07-538.43-10.07-790.27,0ZM1057.04,385.46c5.38,13.54,5.14,30.89-.69,45.54-12.42,31.16-31.97,28.66-59.26,28.54-19.53-.09-39.06-.18-58.58-.27-26.7-.12-53.69,7.33-60.57-25.87-1.92-9.25.72-18.5,9.55-27.77,22.23-23.3,72.04-19.62,105.17-29.72,24.57-7.49,49.91-26.91,64.38,9.55ZM57.22,385.46c-5.38,13.54-5.14,30.89.7,45.54,12.42,31.16,31.97,28.66,59.26,28.54,19.52-.09,39.05-.18,58.58-.27,26.7-.12,53.68,7.33,60.57-25.87,1.92-9.25-.73-18.5-9.55-27.77-22.23-23.3-72.04-19.62-105.16-29.72-24.58-7.49-49.91-26.91-64.39,9.55"/>
  </g>
</svg>